<svg role="img" viewBox="17.52 115.48 28.75 15.2" xmlns="http://www.w3.org/2000/svg"><title>SK hynix</title><g fill="#EA002C"><path d="m20.156 125.508c-.473-.221-.861-.4-.861-.76 0-.277.221-.477.658-.477.16 0 .291.019.427.044.071.012.147.022.209.022.381 0 .596-.227.74-.658l.059-.177c-.061-.024-.684-.298-1.496-.298-1.292 0-1.974.829-1.973 1.688 0 .434.136.748.348.996.274.317.664.526 1.03.704.532.261 1.012.454 1.012.841 0 .344-.355.539-.829.539-.65 0-1.218-.371-1.29-.416l-.534 1c.095.054.782.49 1.914.49 1.205 0 2.118-.692 2.118-1.756 0-1.058-.846-1.45-1.532-1.782"/><path d="m24.872 126.002 2.186-2.681h-1.558l-1.744 2.314h-.026v-2.314h-1.284v5.68h.077c.555 0 1.216-.258 1.216-1.185v-1.304h.026l1.778 2.418h1.634z"/><path d="M27.131 117.237c-.452.085-1.122.496-1.12 1.221.002.66.54 1.06.542 1.922.003.65-.355 1.088-.743 1.33.157-.014.328-.023.517-.023.396-.001.634.037.649.039l2.028-2.49c-.563-.843-1.221-1.498-1.873-2"/><path d="M28.835 123.959c.256-.398.288-1.031.31-1.676.023-.602.149-1.055.954-1.058.178 0 .348.024.656.023 1.18-.005 1.95-.411 2.429-.678-.979-.624-2.408-1.261-4.18-1.333-.116.326-1.014 2.824-1.082 3.025.01.012.168.188.365.532.29.472.445.872.548 1.165"/></g><g fill="#F47725"><path d="M24.551 121.919c-.103 0-.154-.068-.168-.186-.013-.117-.52-4.759-.596-5.461-.01-.103-.036-.291-.036-.358 0-.108.07-.165.153-.165.24-.001 1.55.306 2.94 1.281-.4.112-1.125.529-1.122 1.391.003.764.55 1.184.553 1.95.004 1.245-1.427 1.547-1.724 1.548"/><path d="M28.952 124.29c.022.058.042.107.063.14.032.055.073.079.125.079.032 0 .071-.011.115-.031.107-.049 4.343-2.021 4.982-2.315.092-.045.268-.124.326-.157.06-.034.087-.084.087-.135 0-.028-.008-.057-.025-.083-.08-.13-.489-.564-1.174-1.04-.544.3-1.394.763-2.657.768-.31 0-.38-.02-.592-.02-.616.002-.77.266-.793.807-.004.102-.006.24-.012.39-.019.484-.076 1.15-.445 1.597"/><path d="M35.569 129.077c-.47 1.271-1.075 1.436-1.595 1.436-.368 0-.638-.132-.666-.146l.197-.595c.015.008.214.115.434.115.413 0 .672-.229.901-.947 0 0-1.403-3.054-1.42-3.092.026-.008.194-.06.386-.06.454 0 .554.284.671.567.099.238.745 1.797.745 1.797h.022l.749-2.304h.777z"/><path d="m45.844 128.925-1.086-1.578 1.063-1.544h-.916l-.74 1.132-.446-.7c-.148-.227-.281-.457-.62-.45-.045 0-.092.004-.142.015-.189.035-.344.116-.368.128.012.019.52.74 1.008 1.441l-1.07 1.556h.915l.744-1.136.744 1.136z"/><path d="M37.4 126.862v2.068h.777v-2.15c.042-.039.319-.302.625-.302.399 0 .606.289.606.666v1.786h.775v-1.98c0-.94-.723-1.148-1.127-1.148-.485 0-.83.306-.933.407-.033-.126-.181-.34-.52-.34-.12 0-.276.036-.29.04.023.116.087.393.087.953"/><path d="M41.915 124.912c0 .257-.214.465-.479.465-.264 0-.478-.208-.478-.465 0-.257.214-.466.478-.466.265 0 .479.209.479.466M41.821 128.925h-.77v-3.079h.77zM30.942 126.201c.055-.045.45-.413 1-.413.603 0 1.048.314 1.048 1.08v2.062h-.804v-1.841c0-.34-.187-.602-.541-.602-.337 0-.622.266-.703.333v2.11h-.798v-4.702h.169c.383 0 .63.279.63.65z"/></g></svg>
